<?xml version="1.0" encoding="utf-8"?>
<!-- Generator: Adobe Illustrator 25.0.0, SVG Export Plug-In . SVG Version: 6.00 Build 0)  -->
<svg version="1.1" id="Layer_1" xmlns="http://www.w3.org/2000/svg" xmlns:xlink="http://www.w3.org/1999/xlink" x="0px" y="0px"
	 viewBox="0 0 300 182.01" style="enable-background:new 0 0 300 182.01;" xml:space="preserve">
<style type="text/css">
	.st0{fill:url(#SVGID_1_);}
	.st1{fill:url(#SVGID_2_);}
</style>
<g>
	<linearGradient id="SVGID_1_" gradientUnits="userSpaceOnUse" x1="93.2064" y1="6.3237" x2="93.2064" y2="175.6895">
		<stop  offset="0" style="stop-color:#FCD3AA"/>
		<stop  offset="1" style="stop-color:#AE68A9"/>
	</linearGradient>
	<path class="st0" d="M174.07,22.55v136.91c0,9-7.23,16.23-16.09,16.23c-9,0-16.23-7.23-16.23-16.23v-54.41
		c0-8.86-7.23-16.09-16.23-16.09c-8.86,0-16.09,7.23-16.09,16.09v14.32c0,8.86-7.36,16.09-16.23,16.09c-9,0-16.23-7.23-16.23-16.09
		v-25.5c0,0.41,0,0.95-0.14,1.36c-0.55-8.45-7.5-15-15.95-15c-8.59,0-15.55,6.55-16.09,15c-0.14-0.41-0.14-0.95-0.14-1.36v20.32
		c0,8.86-7.23,16.09-16.23,16.09c-8.86,0-16.09-7.23-16.09-16.09V49.42c0-8.86,7.23-16.23,16.09-16.23c9,0,16.23,7.36,16.23,16.23
		v1.77c0,8.86,7.23,16.09,16.23,16.09c8.86,0,16.09-7.23,16.09-16.09V41.1c0-9,7.23-16.23,16.23-16.23
		c8.86,0,16.23,7.23,16.23,16.23v3.27c0,8.86,7.23,16.09,16.09,16.09c9,0,16.23-7.23,16.23-16.09V22.55c0-9,7.23-16.23,16.23-16.23
		C166.84,6.32,174.07,13.55,174.07,22.55z"/>
	<linearGradient id="SVGID_2_" gradientUnits="userSpaceOnUse" x1="240.0558" y1="29.9487" x2="240.0558" y2="160.3734">
		<stop  offset="0" style="stop-color:#FCD3AA"/>
		<stop  offset="1" style="stop-color:#AE68A9"/>
	</linearGradient>
	<path class="st1" d="M288.66,89.09v44.32c0,8.99-7.23,16.22-16.22,16.22c-4.42,0-8.5-1.83-11.45-4.78
		c-2.88-2.88-4.71-6.95-4.71-11.45v2.04c0-8.92-7.3-16.15-16.22-16.15c-8.92,0-16.22,7.23-16.22,16.15v8.71
		c0,8.92-7.23,16.22-16.15,16.22c-4.5,0-8.57-1.83-11.45-4.78c-2.95-2.95-4.78-6.95-4.78-11.45V46.17c0-8.99,7.23-16.22,16.22-16.22
		c8.92,0,16.15,7.23,16.15,16.22v41.86c0,4.42,1.83,8.5,4.78,11.45c2.95,2.95,6.95,4.78,11.45,4.78c8.92,0,16.22-7.3,16.22-16.22
		v1.05c0-8.92,7.23-16.22,16.15-16.22C281.42,72.86,288.66,80.17,288.66,89.09z"/>
</g>
</svg>
